# xmcd
#
# Track frame offsets:
#	150
#	17267
#	31670
#	53662
#	67592
#	86357
#	100507
#	117657
#	137410
#	157200
#	171700
#	189132
#	207512
#	224492
#	238095
#	256955
#	274652
#	287130
#	302180
#	317200
#
# Disc length: 4347 seconds
#
# Revision: 1
# Processed by: cddbd v1.5.2PL0 Copyright (c) Steve Scherf et al.
# Submitted via: audiograbber 1.83.01
#
DISCID=1910f914
DTITLE=Hity  - 1982
DYEAR=1982
DGENRE=Pop
TTITLE0=Stanislav Hlozek and Petr Kotvald - Holky z nasi skolky
TTITLE1=Helena Vondrackova and Jiri Korn - Ja na brachu - blues
TTITLE2=Olympic - Okno me lasky
TTITLE3=Karel Gott - Nestarej se kamarade
TTITLE4=Michal Tucny - Bajecna zenska
TTITLE5=Jaroslav Uhlir - Severni vitr
TTITLE6=Michal David - To se na ocich pozna
TTITLE7=Jana Kratochvilova - Copanky
TTITLE8=Marie Rottrova - Ten vuz uz jel
TTITLE9=YO - YO BAND - Regae jenom tak
TTITLE10=Vera Spinarova - Bila Jawa 250
TTITLE11=Waldemar Matuska - Eldorado
TTITLE12=Ales Ulm - Dovolena
TTITLE13=Frantisek R. Cech - Ja uz jdu
TTITLE14=Jaromir Mayer - Santa Maria
TTITLE15=Hana Zagorova - Mimoradna linka (Praha - Tokio)
TTITLE16=Vitezslav Vavra - Holky z gymplu
TTITLE17=Stanislav Prochazka ml. - Radio a ja
TTITLE18=Karamel - Prizrak 7.B
TTITLE19=Ivan Mladek se skupinou - Znojmo, vidim te dvojmo
EXTD=
EXTT0=
EXTT1=
EXTT2=
EXTT3=
EXTT4=
EXTT5=
EXTT6=
EXTT7=
EXTT8=
EXTT9=
EXTT10=
EXTT11=
EXTT12=
EXTT13=
EXTT14=
EXTT15=
EXTT16=
EXTT17=
EXTT18=
EXTT19=
PLAYORDER=
